<?xml version="1.0" standalone="no"?>
<!DOCTYPE svg PUBLIC "-//W3C//DTD SVG 20010904//EN"
 "http://www.w3.org/TR/2001/REC-SVG-20010904/DTD/svg10.dtd">
<svg version="1.0" xmlns="http://www.w3.org/2000/svg"
 width="500.000000pt" height="500.000000pt" viewBox="0 0 500.000000 500.000000"
 preserveAspectRatio="xMidYMid meet">

<g transform="translate(0.000000,500.000000) scale(0.100000,-0.100000)"
fill="#000000" stroke="none">
<path d="M1446 3923 c-4 -54 -20 -379 -36 -723 -16 -344 -31 -649 -33 -677
l-4 -53 97 0 97 0 7 138 c5 121 24 801 29 1082 l2 105 33 -105 c18 -58 83
-241 144 -408 l111 -303 75 3 74 3 95 255 c52 140 119 322 148 404 l52 148 6
-78 c3 -44 14 -341 24 -661 l17 -583 23 0 c19 0 23 -5 23 -29 0 -15 3 -49 6
-75 l7 -46 106 0 106 0 0 157 c0 135 4 170 24 240 57 200 201 340 386 374 116
22 290 -2 412 -56 31 -14 57 -25 60 -25 2 0 2 46 1 103 l-3 102 -80 27 c-213
71 -465 56 -648 -39 -51 -26 -97 -62 -159 -124 -80 -80 -88 -86 -88 -61 1 58
-41 939 -46 970 l-5 33 -125 -3 -126 -3 -100 -265 c-54 -146 -119 -321 -142
-389 l-43 -125 -26 77 c-14 43 -76 219 -138 392 l-112 315 -123 0 -122 0 -6
-97z"/>
<path d="M3030 2495 l0 -85 155 0 155 0 0 -32 c0 -55 7 -58 113 -57 l97 1 0
129 0 129 -260 0 -260 0 0 -85z"/>
<path d="M2709 1816 c15 -18 141 -75 204 -92 78 -22 241 -29 335 -15 162 24
302 71 302 102 0 18 -12 19 -426 19 -357 0 -425 -2 -415 -14z"/>
</g>
</svg>
